HIERARCHY
ROOT Hips
{
	OFFSET 0.000000 0.000000 0.000000
	CHANNELS 6 Xposition Yposition Zposition Xrotation Yrotation Zrotation
	JOINT LeftUpLeg_virtual
	{
		OFFSET 0.000000 0.000000 0.000000
		CHANNELS 3 Xrotation Yrotation Zrotation
		JOINT LeftUpLeg
		{
			OFFSET 13.026900 -6.336304 -1.092800
			CHANNELS 3 Xrotation Yrotation Zrotation
			JOINT LeftLeg
			{
				OFFSET 0.524474 -46.096886 9.782700
				CHANNELS 3 Xrotation Yrotation Zrotation
				JOINT LeftFoot
				{
					OFFSET -0.524474 -53.427422 -12.948200
					CHANNELS 3 Xrotation Yrotation Zrotation
					JOINT LeftToeBase
					{
						OFFSET 0.192200 -14.009700 16.364100
						CHANNELS 3 Xrotation Yrotation Zrotation
						JOINT LeftToe_End
						{
							OFFSET -1.784700 -0.561700 9.474800
							CHANNELS 3 Xrotation Yrotation Zrotation
							End Site
							{
								OFFSET 0 0 0
							}
						}
					}
				}
			}
		}
	}
	JOINT RightUpLeg_virtual
	{
		OFFSET 0.000000 0.000000 0.000000
		CHANNELS 3 Xrotation Yrotation Zrotation
		JOINT RightUpLeg
		{
			OFFSET -12.883000 -6.336304 -1.092800
			CHANNELS 3 Xrotation Yrotation Zrotation
			JOINT RightLeg
			{
				OFFSET -0.524587 -46.096825 9.782800
				CHANNELS 3 Xrotation Yrotation Zrotation
				JOINT RightFoot
				{
					OFFSET 0.524587 -53.427383 -12.948300
					CHANNELS 3 Xrotation Yrotation Zrotation
					JOINT RightToeBase
					{
						OFFSET -0.192200 -14.009700 16.364100
						CHANNELS 3 Xrotation Yrotation Zrotation
						JOINT RightToe_End
						{
							OFFSET 1.784700 -0.561700 9.474800
							CHANNELS 3 Xrotation Yrotation Zrotation
							End Site
							{
								OFFSET 0 0 0
							}
						}
					}
				}
			}
		}
	}
	JOINT Spine_virtual
	{
		OFFSET 0.000000 0.000000 0.000000
		CHANNELS 3 Xrotation Yrotation Zrotation
		JOINT Spine
		{
			OFFSET 0.072000 7.257294 -0.789700
			CHANNELS 3 Xrotation Yrotation Zrotation
			JOINT Spine1
			{
				OFFSET 0.000000 12.508769 -0.658067
				CHANNELS 3 Xrotation Yrotation Zrotation
				JOINT Spine1_split
				{
					OFFSET 0.000000 12.508769 -0.658067
					CHANNELS 3 Xrotation Yrotation Zrotation
					JOINT Spine2
					{
						OFFSET 0.000000 12.508769 -0.658067
						CHANNELS 3 Xrotation Yrotation Zrotation
						JOINT Neck_virtual
						{
							OFFSET 0.000000 0.000000 0.000000
							CHANNELS 3 Xrotation Yrotation Zrotation
							JOINT Neck
							{
								OFFSET 0.000000 14.033295 7.520400
								CHANNELS 3 Xrotation Yrotation Zrotation
								JOINT Head
								{
									OFFSET 0.000000 8.198502 5.703100
									CHANNELS 3 Xrotation Yrotation Zrotation
									JOINT HeadTop_End
									{
										OFFSET 0.000000 17.760803 13.332701
										CHANNELS 3 Xrotation Yrotation Zrotation
										End Site
										{
											OFFSET 0 0 0
										}
									}
								}
							}
						}
						JOINT LeftShoulder_virtual
						{
							OFFSET 0.000000 0.000000 0.000000
							CHANNELS 3 Xrotation Yrotation Zrotation
							JOINT LeftShoulder
							{
								OFFSET 6.292450 5.785301 -0.669000
								CHANNELS 3 Xrotation Yrotation Zrotation
								JOINT LeftShoulder_split
								{
									OFFSET 6.292450 5.785301 -0.669000
									CHANNELS 3 Xrotation Yrotation Zrotation
									JOINT LeftArm
									{
										OFFSET 13.907140 -6.093903 1.965100
										CHANNELS 3 Xrotation Yrotation Zrotation
										JOINT LeftForeArm
										{
											OFFSET 34.140198 0.000000 0.000000
											CHANNELS 3 Xrotation Yrotation Zrotation
											JOINT LeftHand
											{
												OFFSET 40.960209 0.000000 0.000000
												CHANNELS 3 Xrotation Yrotation Zrotation
												End Site
												{
													OFFSET 0 0 0
												}
											}
										}
									}
								}
							}
						}
						JOINT RightShoulder_virtual
						{
							OFFSET 0.000000 0.000000 0.000000
							CHANNELS 3 Xrotation Yrotation Zrotation
							JOINT RightShoulder
							{
								OFFSET -6.292450 5.785301 -0.669000
								CHANNELS 3 Xrotation Yrotation Zrotation
								JOINT RightShoulder_split
								{
									OFFSET -6.292450 5.785301 -0.669000
									CHANNELS 3 Xrotation Yrotation Zrotation
									JOINT RightArm
									{
										OFFSET -13.907140 -6.093903 1.965100
										CHANNELS 3 Xrotation Yrotation Zrotation
										JOINT RightForeArm
										{
											OFFSET -34.140198 0.000000 0.000000
											CHANNELS 3 Xrotation Yrotation Zrotation
											JOINT RightHand
											{
												OFFSET -40.960209 0.000000 0.000000
												CHANNELS 3 Xrotation Yrotation Zrotation
												End Site
												{
													OFFSET 0 0 0
												}
											}
										}
									}
								}
							}
						}
					}
				}
			}
		}
	}
}
MOTION
Frames: 12
Frame Time: 0.03333333
7.691625 118.709602 -6.546705 0.000000 0.000000 0.000000 -2.499157 6.551587 -1.382908 -12.387323 9.244378 8.663842 16.774842 -2.314637 3.518395 -3.521820 5.516310 -13.872376 1.635833 -3.000293 -0.754819 0.000000 0.000000 0.000000 -2.247073 7.438609 -1.603959 -9.142029 -1.583685 -1.371049 9.928294 2.209036 0.236496 -1.745512 -4.714451 5.342191 1.390066 -0.017428 -5.303024 0.000000 0.000000 0.000000 -3.303352 10.956318 -2.085223 2.268410 -3.504972 2.326616 4.141169 -0.740347 0.378469 0.163109 -0.568473 0.118597 0.000000 0.000000 0.000000 4.037074 0.850717 0.525772 -6.021068 7.506557 6.993352 7.038257 -7.849475 -4.659391 0.000000 0.000000 0.000000 3.565960 -0.597732 0.525599 1.448165 -4.377731 -1.337271 1.694835 -2.899331 -1.009412 0.823340 9.576738 -82.053972 15.491246 -23.512882 8.225330 0.000000 0.000000 0.000000 3.843226 -0.358642 0.931879 1.948639 -0.995963 5.161130 -6.954539 -0.436865 -1.383684 -2.315199 12.781196 75.468529 1.502344 12.831644 -0.181632 0.000000 0.000000 0.000000 
7.529498 118.681374 -6.400625 0.000000 0.000000 0.000000 -2.502976 6.509722 -1.427249 -12.272241 9.223200 8.718966 16.784941 -2.416340 3.529754 -3.517165 5.573435 -13.868487 1.583710 -3.003327 -0.734556 0.000000 0.000000 0.000000 -2.213176 7.219758 -1.646397 -9.086615 -1.553120 -1.308416 10.049957 2.270084 0.198898 -1.848324 -4.582150 4.967195 1.701467 -0.045222 -5.201723 0.000000 0.000000 0.000000 -3.160280 10.977612 -1.997109 2.350749 -3.532133 2.225418 4.058365 -0.768589 0.382074 0.165690 -0.639838 0.097420 0.000000 0.000000 0.000000 4.036339 0.848384 0.526996 -5.951555 7.533827 6.935640 7.311662 -7.829259 -4.712758 0.000000 0.000000 0.000000 3.515433 -0.620462 0.529837 1.481870 -4.434656 -1.432884 1.609705 -2.638694 -1.084084 0.763152 9.471126 -81.977085 15.507915 -23.649786 8.175188 0.000000 0.000000 0.000000 3.797103 -0.367544 0.960051 2.003665 -0.984332 5.193022 -6.951693 -0.253589 -1.350575 -2.087482 12.702760 75.455477 1.458122 12.928361 -0.183564 0.000000 0.000000 0.000000 
7.318587 118.611000 -6.243658 0.000000 0.000000 0.000000 -2.500394 6.224618 -1.450314 -11.938776 9.168970 8.779025 16.708395 -2.545127 3.562457 -3.780225 5.769317 -13.609913 1.394665 -3.023142 -0.704177 0.000000 0.000000 0.000000 -2.141574 6.845575 -1.661963 -9.208848 -1.520269 -1.289460 10.215698 2.400610 0.154122 -1.925735 -4.261286 4.569534 1.725777 -0.068122 -5.177675 0.000000 0.000000 0.000000 -3.014813 10.753121 -1.886776 2.636265 -3.610525 2.030324 3.881866 -0.768789 0.403941 0.159675 -0.693158 0.077999 0.000000 0.000000 0.000000 3.949402 0.865856 0.549471 -5.828532 7.631249 6.858490 7.704437 -7.670179 -4.724621 0.000000 0.000000 0.000000 3.368565 -0.625190 0.551701 1.513558 -4.506580 -1.620287 1.555595 -2.431574 -1.218815 0.717889 9.188788 -81.797881 15.533069 -23.805711 8.038968 0.000000 0.000000 0.000000 3.621817 -0.365536 1.007186 2.062711 -0.860464 5.278146 -6.849262 -0.130957 -1.378202 -1.675595 12.901598 75.322438 1.367013 13.192031 -0.142068 0.000000 0.000000 0.000000 
7.067379 118.494858 -6.053213 0.000000 0.000000 0.000000 -2.461644 5.790195 -1.445191 -11.510593 9.095970 8.876403 16.582668 -2.650245 3.580338 -4.235828 6.164942 -13.161651 1.651929 -3.048046 -0.750807 0.000000 0.000000 0.000000 -2.026146 6.336810 -1.657033 -9.509872 -1.514467 -1.306508 10.455532 2.586293 0.123960 -1.892634 -3.793330 4.258013 1.439119 -0.092048 -5.229667 0.000000 0.000000 0.000000 -2.872963 10.243872 -1.784761 3.088148 -3.724602 1.767655 3.625558 -0.751458 0.446017 0.146803 -0.726769 0.071364 0.000000 0.000000 0.000000 3.790690 0.898516 0.595218 -5.645624 7.792906 6.761180 8.144844 -7.372572 -4.665061 0.000000 0.000000 0.000000 3.154396 -0.614159 0.595772 1.546982 -4.547908 -1.859318 1.493752 -2.293821 -1.355868 0.697349 8.817570 -81.560197 15.590291 -23.979633 7.855795 0.000000 0.000000 0.000000 3.340284 -0.357038 1.072943 2.127531 -0.678277 5.403894 -6.723899 -0.163959 -1.441748 -1.155755 13.341020 75.086223 1.244242 13.631806 -0.067088 0.000000 0.000000 0.000000 
6.758559 118.384659 -5.824774 0.000000 0.000000 0.000000 -2.332933 5.237562 -1.459116 -11.129377 9.108043 9.055379 16.348474 -2.722742 3.521706 -4.660105 6.700644 -12.831931 2.460245 -3.069493 -0.868178 0.000000 0.000000 0.000000 -1.851181 5.665961 -1.640635 -9.960448 -1.507728 -1.338985 10.736849 2.808314 0.126144 -1.733776 -3.208795 4.065574 1.038398 -0.125364 -5.343920 0.000000 0.000000 0.000000 -2.727343 9.450000 -1.724715 3.610055 -3.850318 1.484129 3.315714 -0.734329 0.506962 0.158547 -0.736679 0.075006 0.000000 0.000000 0.000000 3.576138 0.934497 0.656368 -5.407740 8.007996 6.663124 8.617502 -6.918861 -4.513346 0.000000 0.000000 0.000000 2.911204 -0.596909 0.661784 1.574580 -4.507058 -2.119293 1.407024 -2.288429 -1.432754 0.680060 8.481590 -81.313730 15.709367 -24.142251 7.683842 0.000000 0.000000 0.000000 3.008257 -0.350030 1.152918 2.205309 -0.511754 5.549361 -6.580771 -0.287152 -1.586020 -0.604251 13.981408 74.755341 1.114668 14.205213 0.014942 0.000000 0.000000 0.000000 
6.359076 118.293213 -5.578535 0.000000 0.000000 0.000000 -2.089268 4.530246 -1.520590 -10.775162 9.237499 9.305829 15.919983 -2.767177 3.372286 -4.899500 7.367731 -12.785036 3.329272 -3.107860 -0.925562 0.000000 0.000000 0.000000 -1.621089 4.878948 -1.662855 -10.488414 -1.438701 -1.316950 11.004925 3.022032 0.165777 -1.601750 -2.561108 3.894811 0.821025 -0.172867 -5.483365 0.000000 0.000000 0.000000 -2.539637 8.420139 -1.728882 4.086475 -3.955003 1.234400 2.982810 -0.737006 0.577678 0.189999 -0.745526 0.094692 0.000000 0.000000 0.000000 3.330226 0.955921 0.720707 -5.141295 8.254948 6.594896 9.119789 -6.305531 -4.280115 0.000000 0.000000 0.000000 2.661202 -0.589953 0.737261 1.588218 -4.369207 -2.360096 1.379782 -2.355090 -1.427686 0.633920 8.275938 -81.116003 15.903190 -24.204761 7.548571 0.000000 0.000000 0.000000 2.674525 -0.356256 1.233404 2.299538 -0.413044 5.710297 -6.495364 -0.477867 -1.730518 -0.083613 14.747960 74.340469 1.019333 14.831807 0.066880 0.000000 0.000000 0.000000 
5.820021 118.182335 -5.274454 0.000000 0.000000 0.000000 -1.736341 3.663075 -1.639533 -10.432221 9.499645 9.598937 15.328703 -2.628868 3.183631 -5.181022 8.259109 -12.820869 4.022299 -3.195134 -0.857714 0.000000 0.000000 0.000000 -1.299143 3.968124 -1.756899 -10.997543 -1.215091 -1.162923 11.231546 3.148915 0.224335 -1.666812 -1.920925 3.562081 1.003255 -0.230151 -5.608927 0.000000 0.000000 0.000000 -2.255887 7.234358 -1.809578 4.428430 -4.028438 1.063581 2.654048 -0.777639 0.637113 0.201538 -0.771389 0.118889 0.000000 0.000000 0.000000 3.083381 0.944404 0.771404 -4.881882 8.510841 6.571973 9.664935 -5.589924 -3.984086 0.000000 0.000000 0.000000 2.427656 -0.607620 0.806049 1.582624 -4.135522 -2.557656 1.441602 -2.474478 -1.405362 0.571068 8.238198 -80.975485 16.169267 -24.093014 7.436628 0.000000 0.000000 0.000000 2.366281 -0.394471 1.293223 2.404343 -0.418477 5.917684 -6.477447 -0.681709 -1.771700 0.404431 15.593814 73.859514 1.002106 15.429601 0.050113 0.000000 0.000000 0.000000 
5.156667 118.043068 -4.883974 0.000000 0.000000 0.000000 -1.338535 2.630225 -1.838106 -10.141032 9.834310 9.922077 14.794924 -2.245698 3.031584 -5.552224 9.407392 -12.980762 4.806382 -3.334262 -0.720339 0.000000 0.000000 0.000000 -0.883496 2.965268 -1.925900 -11.424186 -0.730068 -0.836631 11.361759 3.154497 0.277846 -1.932780 -1.333388 3.062370 1.507506 -0.288077 -5.711286 0.000000 0.000000 0.000000 -1.887040 5.964111 -1.957543 4.603833 -4.065279 0.999917 2.353450 -0.864952 0.668594 0.204077 -0.815054 0.144430 0.000000 0.000000 0.000000 2.845579 0.884126 0.788379 -4.660834 8.772625 6.609662 10.255950 -4.778099 -3.673415 0.000000 0.000000 0.000000 2.215183 -0.665429 0.853956 1.557538 -3.829990 -2.687454 1.566168 -2.731593 -1.397980 0.518309 8.349724 -80.866728 16.462042 -23.753504 7.295950 0.000000 0.000000 0.000000 2.095646 -0.481566 1.311040 2.502336 -0.548390 6.193041 -6.490868 -0.752836 -1.657145 0.888106 16.447982 73.321644 1.089640 15.912792 -0.058766 0.000000 0.000000 0.000000 
4.383109 117.865128 -4.412550 0.000000 0.000000 0.000000 -0.935658 1.479628 -2.090700 -9.885026 10.178220 10.262615 14.468441 -1.621523 2.988284 -6.131723 10.824274 -13.279240 5.792457 -3.540277 -0.548173 0.000000 0.000000 0.000000 -0.405890 1.869510 -2.148395 -11.815690 0.075195 -0.361801 11.388738 3.099136 0.312761 -2.201340 -0.796236 2.650002 1.906086 -0.331110 -5.807131 0.000000 0.000000 0.000000 -1.456726 4.645049 -2.145175 4.660649 -4.081815 1.044427 2.090338 -0.997351 0.666633 0.192062 -0.844574 0.155431 0.000000 0.000000 0.000000 2.618036 0.765140 0.766950 -4.501481 9.047841 6.691497 10.870952 -3.901796 -3.391618 0.000000 0.000000 0.000000 2.025388 -0.772874 0.876655 1.522395 -3.488691 -2.729995 1.679759 -3.135476 -1.411717 0.529259 8.506012 -80.753333 16.710673 -23.220213 7.066397 0.000000 0.000000 0.000000 1.864688 -0.620725 1.285071 2.581048 -0.782955 6.593927 -6.604924 -0.690103 -1.455010 1.398275 17.221967 72.766472 1.291904 16.250953 -0.250012 0.000000 0.000000 0.000000 
3.505418 117.635582 -3.845541 0.000000 0.000000 0.000000 -0.548138 0.254198 -2.338813 -9.533964 10.361423 10.529365 14.280968 -0.844172 3.071168 -6.943836 12.353799 -13.865415 6.529385 -3.798096 -0.291058 0.000000 0.000000 0.000000 0.060776 0.629553 -2.368896 -12.241705 1.203223 0.231054 11.500446 3.036394 0.324390 -2.290647 -0.331820 2.525078 1.967262 -0.358939 -5.903362 0.000000 0.000000 0.000000 -1.011607 3.330097 -2.347859 4.701866 -4.099268 1.154540 1.861818 -1.172245 0.635146 0.173332 -0.843536 0.159369 0.000000 0.000000 0.000000 2.397845 0.594593 0.721505 -4.424635 9.361886 6.793241 11.458565 -2.953995 -3.164253 0.000000 0.000000 0.000000 1.861601 -0.928254 0.882782 1.484887 -3.129361 -2.706510 1.746274 -3.667407 -1.432689 0.633762 8.616205 -80.569021 16.859301 -22.634625 6.718583 0.000000 0.000000 0.000000 1.653773 -0.813093 1.226348 2.618742 -1.101707 7.113427 -6.724738 -0.580985 -1.214356 1.903862 17.865762 72.237945 1.596849 16.507934 -0.498640 0.000000 0.000000 0.000000 
2.556812 117.329483 -3.267523 0.000000 0.000000 0.000000 -0.260328 -1.038647 -2.544564 -9.093206 10.275427 10.771141 14.246898 -0.175601 3.219630 -7.624385 13.750825 -15.186953 6.357421 -4.054616 0.136709 0.000000 0.000000 0.000000 0.409004 -0.768100 -2.555756 -12.763201 2.543523 0.921391 11.868761 2.983008 0.328106 -2.294680 -0.010296 2.638793 1.915248 -0.392420 -5.972661 0.000000 0.000000 0.000000 -0.620281 2.076410 -2.542356 4.837591 -4.137451 1.261242 1.669362 -1.371461 0.592412 0.164347 -0.829215 0.164490 0.000000 0.000000 0.000000 2.179507 0.389284 0.676798 -4.446875 9.711323 6.908851 11.955994 -1.980323 -2.994333 0.000000 0.000000 0.000000 1.719590 -1.117966 0.880178 1.456515 -2.789103 -2.627844 1.711399 -4.200327 -1.462726 0.827908 8.650471 -80.278314 16.905722 -22.156437 6.288200 0.000000 0.000000 0.000000 1.453902 -1.041984 1.150770 2.596149 -1.491290 7.710531 -6.853166 -0.474651 -0.981874 2.386352 18.407141 71.774182 1.990362 16.790167 -0.771926 0.000000 0.000000 0.000000 
1.557394 116.915581 -2.701899 0.000000 0.000000 0.000000 -0.120207 -2.415503 -2.695353 -8.602112 10.024294 10.953916 14.508474 0.634170 3.332591 -8.257939 15.061566 -16.646486 5.493476 -4.309732 0.593107 0.000000 0.000000 0.000000 0.565403 -2.339613 -2.700134 -13.392941 3.950132 1.684882 12.507477 2.919406 0.326932 -2.566420 0.115587 2.763426 2.102557 -0.441512 -6.001240 0.000000 0.000000 0.000000 -0.313967 0.887391 -2.693546 5.135603 -4.201260 1.303741 1.502394 -1.573220 0.554066 0.160436 -0.805146 0.161526 0.000000 0.000000 0.000000 1.973879 0.172708 0.654344 -4.568178 10.080717 7.044908 12.320546 -1.082625 -2.847842 0.000000 0.000000 0.000000 1.598735 -1.320108 0.876018 1.445581 -2.491225 -2.492063 1.614359 -4.685245 -1.479687 1.101167 8.634851 -79.864910 16.896829 -21.985143 5.862559 0.000000 0.000000 0.000000 1.271465 -1.278599 1.080878 2.503284 -1.922987 8.339671 -6.996993 -0.412361 -0.821455 2.879600 18.962827 71.373353 2.455379 17.189027 -1.030515 0.000000 0.000000 0.000000 
